<svg xmlns="http://www.w3.org/2000/svg" height="512" viewBox="0 0 72 72" width="512"><g id="Layer_25"><path d="m17 49h40l5-1s10-5 5-15-13-5-13-5v-2s2-16-13-19-19 14-19 14h-7s-13 5-11 16 13 12 13 12z" fill="#c9a9d1"></path><path d="m33 40v-11h-5l3-5 5-3 8 7v1h-5v15l-3-1z" fill="#a5d3b8"></path><path d="m22 42v21l3 2h25l3-3v-15l-3-3h-12l-3-2-2-2-8-1z" fill="#fbe398"></path><g><g fill="#24185c"><path d="m57 26c-.773 0-1.546.077-2.311.23.207-1.064.311-2.146.311-3.23 0-9.374-7.626-17-17-17-8.343 0-15.497 6.214-16.783 14.35-1.057-.233-2.135-.35-3.217-.35-8.271 0-15 6.729-15 15s6.729 15 15 15c.553 0 1-.448 1-1s-.447-1-1-1c-7.168 0-13-5.832-13-13s5.832-13 13-13c1.279 0 2.551.189 3.779.563.288.086.602.04.852-.129s.41-.441.436-.742c.663-7.678 7.223-13.692 14.933-13.692 8.271 0 15 6.729 15 15 0 1.473-.218 2.939-.648 4.358-.109.361-.006.753.268 1.014.272.26.67.345 1.025.218 1.097-.391 2.226-.59 3.355-.59 5.514 0 10 4.486 10 10s-4.486 10-10 10c-.553 0-1 .448-1 1s.447 1 1 1c6.617 0 12-5.383 12-12s-5.383-12-12-12z"></path><path d="m49 43h-10.077c-.916 0-1.771-.411-2.343-1.125l-1.599-1.999c-.954-1.192-2.377-1.876-3.904-1.876h-5.077c-2.757 0-5 2.243-5 5v18c0 2.757 2.243 5 5 5h23c2.757 0 5-2.243 5-5v-13c0-2.757-2.243-5-5-5zm3 18c0 1.654-1.346 3-3 3h-23c-1.654 0-3-1.346-3-3v-18c0-1.654 1.346-3 3-3h5.077c.916 0 1.771.411 2.343 1.125l1.599 1.999c.954 1.192 2.377 1.876 3.904 1.876h10.077c1.654 0 3 1.346 3 3z"></path><path d="m39 47h-1c-.553 0-1 .448-1 1s.447 1 1 1h1c.553 0 1-.448 1-1s-.447-1-1-1z"></path><path d="m44 47h-2c-.553 0-1 .448-1 1s.447 1 1 1h1v2c0 .552.447 1 1 1s1-.448 1-1v-3c0-.552-.447-1-1-1z"></path><path d="m49 47h-2c-.553 0-1 .448-1 1s.447 1 1 1h1v5c0 .552.447 1 1 1s1-.448 1-1v-6c0-.552-.447-1-1-1z"></path><path d="m38 29v11c0 .552.447 1 1 1s1-.448 1-1v-10h5c.404 0 .77-.244.924-.617.155-.374.069-.804-.217-1.09l-9-9c-.391-.391-1.023-.391-1.414 0l-9 9c-.286.286-.372.716-.217 1.09.154.373.52.617.924.617h5v6c0 .552.447 1 1 1s1-.448 1-1v-7c0-.552-.447-1-1-1h-3.586l6.586-6.586 6.586 6.586h-3.586c-.553 0-1 .448-1 1z"></path><path d="m7 35c0 .552.447 1 1 1s1-.448 1-1c0-4.962 4.037-9 9-9 .553 0 1-.448 1-1s-.447-1-1-1c-6.065 0-11 4.935-11 11z"></path><path d="m38 10c-7.168 0-13 5.832-13 13 0 .552.447 1 1 1s1-.448 1-1c0-6.065 4.935-11 11-11 .553 0 1-.448 1-1s-.447-1-1-1z"></path><path d="m51 38c0-3.309 2.691-6 6-6 .553 0 1-.448 1-1s-.447-1-1-1c-4.411 0-8 3.589-8 8 0 .552.447 1 1 1s1-.448 1-1z"></path></g></g></g></svg>