<svg xmlns="http://www.w3.org/2000/svg" width="46.749" height="49.086" viewBox="0 0 46.749 49.086"><g id="Layer_25" transform="translate(0 0.001)"><path id="Path_29216" data-name="Path 29216" d="M29.712,32.049H5.558A1.558,1.558,0,0,1,4,30.491V5.558A1.558,1.558,0,0,1,5.558,4H29.712A1.558,1.558,0,0,1,31.27,5.558V30.491A1.558,1.558,0,0,1,29.712,32.049Z" transform="translate(-3.221 -3.222)" fill="#f6b9c3"></path><ellipse id="Ellipse_1292" data-name="Ellipse 1292" cx="7.853" cy="7.853" rx="7.853" ry="7.853" transform="translate(17.949 17.949)" fill="#c9a9d1"></ellipse><g id="Group_12756" data-name="Group 12756" transform="translate(10.096 6.731)"><ellipse id="Ellipse_1293" data-name="Ellipse 1293" cx="3.365" cy="3.365" rx="3.365" ry="3.365" transform="translate(29.167 0)" fill="#fbe398"></ellipse><ellipse id="Ellipse_1294" data-name="Ellipse 1294" cx="3.365" cy="2.805" rx="3.365" ry="2.805" transform="translate(0 32.533)" fill="#fbe398"></ellipse><circle id="Ellipse_1295" data-name="Ellipse 1295" cx="4.487" cy="4.487" r="4.487" transform="translate(24.68 32.533)" fill="#fbe398"></circle></g><path id="Path_29217" data-name="Path 29217" d="M29.712,4H5.558A1.558,1.558,0,0,0,4,5.558v4.675H31.27V5.558A1.558,1.558,0,0,0,29.712,4Z" transform="translate(-3.221 -3.222)" fill="#c9a9d1"></path><path id="Path_29218" data-name="Path 29218" d="M9,16H28.479v6.233H9Z" transform="translate(-4.325 -5.872)" fill="#fffad9"></path><g id="Group_12758" data-name="Group 12758" transform="translate(0 -0.001)"><g id="Group_12757" data-name="Group 12757"><path id="Path_29219" data-name="Path 29219" d="M39.632,27.512a8.567,8.567,0,1,0,0,12.121A8.581,8.581,0,0,0,39.632,27.512ZM28.613,38.53a7.013,7.013,0,1,1,9.917,0,7.021,7.021,0,0,1-9.917,0Z" transform="translate(-7.86 -7.86)" fill="#24185c"></path><path id="Path_29220" data-name="Path 29220" d="M35.072,30.8l-.551.551a.779.779,0,0,0,1.1,1.1l.551-.551a1.6,1.6,0,0,1,2.2,0,1.557,1.557,0,0,1,0,2.2l-.551.551a.779.779,0,1,0,1.1,1.1l.551-.551a3.115,3.115,0,0,0,0-4.407,3.189,3.189,0,0,0-4.407,0Z" transform="translate(-9.911 -8.945)" fill="#24185c"></path><path id="Path_29221" data-name="Path 29221" d="M34.648,37.826l-.551.551a1.6,1.6,0,0,1-2.2,0,1.559,1.559,0,0,1,0-2.2l.551-.551a.779.779,0,1,0-1.1-1.1l-.551.551A3.116,3.116,0,1,0,35.2,39.479l.551-.551a.779.779,0,1,0-1.1-1.1Z" transform="translate(-8.936 -9.911)" fill="#24185c"></path><path id="Path_29222" data-name="Path 29222" d="M33.107,37.514a.779.779,0,0,0,1.1,0l3.305-3.305a.779.779,0,0,0-1.1-1.1l-3.305,3.305A.778.778,0,0,0,33.107,37.514Z" transform="translate(-9.599 -9.599)" fill="#24185c"></path><path id="Path_29223" data-name="Path 29223" d="M19.362,31.828a.779.779,0,0,0-.779-.779H5.337a.78.78,0,0,1-.779-.779V10.791h18.7a.779.779,0,0,0,0-1.558H4.558v-3.9a.78.78,0,0,1,.779-.779H29.491a.779.779,0,0,1,.779.779v3.9h-3.9a.779.779,0,1,0,0,1.558h3.9v7.791a.779.779,0,1,0,1.558,0V5.337A2.34,2.34,0,0,0,29.491,3H5.337A2.34,2.34,0,0,0,3,5.337V30.27a2.34,2.34,0,0,0,2.337,2.337H18.583A.779.779,0,0,0,19.362,31.828Z" transform="translate(-3 -3)" fill="#24185c"></path><path id="Path_29224" data-name="Path 29224" d="M6.779,7a.779.779,0,1,0,0,1.558h7.791a.779.779,0,0,0,0-1.558Z" transform="translate(-3.663 -3.883)" fill="#24185c"></path><path id="Path_29225" data-name="Path 29225" d="M28.258,20.454a.779.779,0,0,0,.779-.779v-3.9A.779.779,0,0,0,28.258,15H8.779A.779.779,0,0,0,8,15.779v6.233a.779.779,0,0,0,.779.779h14.8a.779.779,0,1,0,0-1.558H9.558V16.558h17.92v3.117A.779.779,0,0,0,28.258,20.454Z" transform="translate(-4.104 -5.65)" fill="#24185c"></path><path id="Path_29226" data-name="Path 29226" d="M10.779,29.558h4.675a.779.779,0,0,0,0-1.558H10.779a.779.779,0,0,0,0,1.558Z" transform="translate(-4.546 -8.521)" fill="#24185c"></path><path id="Path_29227" data-name="Path 29227" d="M10.779,32.558h4.675a.779.779,0,1,0,0-1.558H10.779a.779.779,0,1,0,0,1.558Z" transform="translate(-4.546 -9.184)" fill="#24185c"></path><path id="Path_29228" data-name="Path 29228" d="M10.779,35.558h7.012a.779.779,0,0,0,0-1.558H10.779a.779.779,0,0,0,0,1.558Z" transform="translate(-4.546 -9.847)" fill="#24185c"></path><path id="Path_29229" data-name="Path 29229" d="M55.129,11a3.9,3.9,0,0,0-3.9,3.9,3.854,3.854,0,0,0,.566,1.992l-6.546,6a.779.779,0,0,0,1.053,1.148l6.543-6a3.86,3.86,0,0,0,2.28.752,3.9,3.9,0,0,0,0-7.791Zm0,6.233A2.337,2.337,0,1,1,57.466,14.9,2.34,2.34,0,0,1,55.129,17.233Z" transform="translate(-12.276 -4.767)" fill="#24185c"></path><path id="Path_29230" data-name="Path 29230" d="M50.792,50.675a5.419,5.419,0,0,0-2.561.641L44.4,46.305a.779.779,0,0,0-1.237.946l3.815,4.987a5.45,5.45,0,1,0,3.816-1.563Zm0,9.35a3.9,3.9,0,1,1,3.9-3.9A3.9,3.9,0,0,1,50.792,60.025Z" transform="translate(-11.834 -12.497)" fill="#24185c"></path><path id="Path_29231" data-name="Path 29231" d="M24.52,46.293l-3.858,4.825a3.855,3.855,0,0,0-1.767-.443,3.9,3.9,0,1,0,3.9,3.9,3.861,3.861,0,0,0-.914-2.477l3.86-4.828a.779.779,0,1,0-1.217-.972ZM18.9,56.908a2.337,2.337,0,1,1,2.337-2.337A2.34,2.34,0,0,1,18.9,56.908Z" transform="translate(-5.65 -12.497)" fill="#24185c"></path></g></g></g></svg>